<svg xmlns="http://www.w3.org/2000/svg" xmlns:xlink="http://www.w3.org/1999/xlink" width="500" zoomAndPan="magnify" viewBox="0 0 375 374.999991" height="500" preserveAspectRatio="xMidYMid meet" version="1.0"><defs><clipPath id="b6e99c84f6"><path d="M 143.746094 129.894531 L 297.914062 129.894531 L 297.914062 284.0625 L 143.746094 284.0625 Z M 143.746094 129.894531 " clip-rule="nonzero"/></clipPath><clipPath id="559acf6a0f"><path d="M 66.660156 206.976562 L 220.832031 52.808594 L 375 206.976562 L 220.832031 361.148438 Z M 66.660156 206.976562 " clip-rule="nonzero"/></clipPath><clipPath id="4872f95989"><path d="M 143.746094 129.894531 L 297.914062 129.894531 L 297.914062 284.0625 L 143.746094 284.0625 Z M 143.746094 129.894531 " clip-rule="nonzero"/></clipPath><clipPath id="7dac6e9f4f"><path d="M 66.660156 206.976562 L 220.988281 52.652344 L 375.3125 206.976562 L 220.988281 361.304688 Z M 66.660156 206.976562 " clip-rule="nonzero"/></clipPath><clipPath id="dc4ffd74bd"><path d="M 66.660156 206.976562 L 220.828125 52.808594 L 374.996094 206.976562 L 220.828125 361.148438 Z M 66.660156 206.976562 " clip-rule="nonzero"/></clipPath><clipPath id="f0073b8947"><path d="M 227.199219 213.347656 L 284.007812 213.347656 L 284.007812 270.152344 L 227.199219 270.152344 Z M 227.199219 213.347656 " clip-rule="nonzero"/></clipPath><clipPath id="ff6037f22b"><path d="M 198.796875 241.75 L 255.605469 184.941406 L 312.410156 241.75 L 255.605469 298.554688 Z M 198.796875 241.75 " clip-rule="nonzero"/></clipPath><clipPath id="68be0ddf01"><path d="M 85 72 L 165 72 L 165 151 L 85 151 Z M 85 72 " clip-rule="nonzero"/></clipPath><clipPath id="265b5945a4"><path d="M 85.878906 86.453125 L 100.308594 72.019531 L 164.601562 136.3125 L 150.171875 150.746094 Z M 85.878906 86.453125 " clip-rule="nonzero"/></clipPath><clipPath id="9c2d6be974"><path d="M 66 124 L 159 124 L 159 217 L 66 217 Z M 66 124 " clip-rule="nonzero"/></clipPath><clipPath id="3b6e90dd32"><path d="M 66.480469 139.089844 L 80.914062 124.65625 L 158.75 202.492188 L 144.316406 216.925781 Z M 66.480469 139.089844 " clip-rule="nonzero"/></clipPath><clipPath id="b53a583bca"><path d="M 0 125 L 159 125 L 159 285 L 0 285 Z M 0 125 " clip-rule="nonzero"/></clipPath><clipPath id="c155fbf8ae"><path d="M 0 140.316406 L 14.429688 125.886719 L 158.175781 269.628906 L 143.746094 284.0625 Z M 0 140.316406 " clip-rule="nonzero"/></clipPath><clipPath id="24560e2190"><path d="M 148 63 L 231 63 L 231 146 L 148 146 Z M 148 63 " clip-rule="nonzero"/></clipPath><clipPath id="a98bf98d5d"><path d="M 148.582031 77.917969 L 163.011719 63.488281 L 230.382812 130.859375 L 215.953125 145.292969 Z M 148.582031 77.917969 " clip-rule="nonzero"/></clipPath><clipPath id="80f9eca2bb"><path d="M 167 13 L 298 13 L 298 145 L 167 145 Z M 167 13 " clip-rule="nonzero"/></clipPath><clipPath id="50db7197ba"><path d="M 167.441406 28.28125 L 181.871094 13.847656 L 297.914062 129.890625 L 283.484375 144.324219 Z M 167.441406 28.28125 " clip-rule="nonzero"/></clipPath></defs><g clip-path="url(#b6e99c84f6)"><g clip-path="url(#559acf6a0f)"><path fill="#ffffff" d="M 66.660156 206.976562 L 220.832031 52.808594 L 375 206.976562 L 220.832031 361.148438 Z M 66.660156 206.976562 " fill-opacity="1" fill-rule="nonzero"/></g></g><g clip-path="url(#4872f95989)"><g clip-path="url(#7dac6e9f4f)"><g clip-path="url(#dc4ffd74bd)"><path stroke-linecap="butt" transform="matrix(0.53033, -0.53033, 0.53033, 0.53033, 66.660293, 206.978101)" fill="none" stroke-linejoin="miter" d="M 145.352298 0.00210366 L 290.703275 145.353081 L 145.352298 290.704058 L 0.00132148 145.353081 Z M 145.352298 0.00210366 " stroke="#ffffff" stroke-width="12" stroke-opacity="1" stroke-miterlimit="4"/></g></g></g><g clip-path="url(#f0073b8947)"><g clip-path="url(#ff6037f22b)"><path fill="#000000" d="M 198.796875 241.75 L 255.605469 184.941406 L 312.410156 241.75 L 255.605469 298.554688 Z M 198.796875 241.75 " fill-opacity="1" fill-rule="nonzero"/></g></g><g clip-path="url(#68be0ddf01)"><g clip-path="url(#265b5945a4)"><path fill="#ffffff" d="M 85.878906 86.453125 L 100.308594 72.019531 L 164.628906 136.339844 L 150.199219 150.769531 Z M 85.878906 86.453125 " fill-opacity="1" fill-rule="nonzero"/></g></g><g clip-path="url(#9c2d6be974)"><g clip-path="url(#3b6e90dd32)"><path fill="#ffffff" d="M 66.480469 139.089844 L 80.914062 124.65625 L 158.761719 202.507812 L 144.332031 216.9375 Z M 66.480469 139.089844 " fill-opacity="1" fill-rule="nonzero"/></g></g><g clip-path="url(#b53a583bca)"><g clip-path="url(#c155fbf8ae)"><path fill="#ffffff" d="M 0 140.316406 L 14.429688 125.886719 L 158.179688 269.632812 L 143.746094 284.0625 Z M 0 140.316406 " fill-opacity="1" fill-rule="nonzero"/></g></g><g clip-path="url(#24560e2190)"><g clip-path="url(#a98bf98d5d)"><path fill="#ffffff" d="M 148.582031 77.917969 L 163.011719 63.488281 L 230.375 130.851562 L 215.945312 145.285156 Z M 148.582031 77.917969 " fill-opacity="1" fill-rule="nonzero"/></g></g><g clip-path="url(#80f9eca2bb)"><g clip-path="url(#50db7197ba)"><path fill="#ffffff" d="M 167.441406 28.28125 L 181.871094 13.847656 L 297.941406 129.917969 L 283.507812 144.347656 Z M 167.441406 28.28125 " fill-opacity="1" fill-rule="nonzero"/></g></g></svg>