<svg xmlns="http://www.w3.org/2000/svg" xmlns:xlink="http://www.w3.org/1999/xlink" width="100" zoomAndPan="magnify" viewBox="0 0 75 30.000001" height="40" preserveAspectRatio="xMidYMid meet" version="1.0"><defs><g/><clipPath id="7b74088cb8"><path d="M 11.554688 10.367188 L 22.648438 10.367188 L 22.648438 21.460938 L 11.554688 21.460938 Z M 11.554688 10.367188 " clip-rule="nonzero"/></clipPath><clipPath id="704216488f"><path d="M 6.007812 15.914062 L 17.101562 4.820312 L 28.195312 15.914062 L 17.101562 27.007812 Z M 6.007812 15.914062 " clip-rule="nonzero"/></clipPath><clipPath id="1cc69cb63f"><path d="M 11.550781 10.371094 L 22.644531 10.371094 L 22.644531 21.460938 L 11.550781 21.460938 Z M 11.550781 10.371094 " clip-rule="nonzero"/></clipPath><clipPath id="778cd33201"><path d="M 6.007812 15.914062 L 17.296875 4.625 L 28.589844 15.914062 L 17.296875 27.207031 Z M 6.007812 15.914062 " clip-rule="nonzero"/></clipPath><clipPath id="7e4abfb4d2"><path d="M 6.007812 15.914062 L 17.097656 4.824219 L 28.1875 15.914062 L 17.097656 27.007812 Z M 6.007812 15.914062 " clip-rule="nonzero"/></clipPath><clipPath id="c88cbfb85f"><path d="M 17.558594 16.371094 L 21.648438 16.371094 L 21.648438 20.460938 L 17.558594 20.460938 Z M 17.558594 16.371094 " clip-rule="nonzero"/></clipPath><clipPath id="8223b7f2c6"><path d="M 15.515625 18.414062 L 19.601562 14.328125 L 23.691406 18.414062 L 19.601562 22.503906 Z M 15.515625 18.414062 " clip-rule="nonzero"/></clipPath><clipPath id="b673cb2bed"><path d="M 7 6 L 14 6 L 14 12 L 7 12 Z M 7 6 " clip-rule="nonzero"/></clipPath><clipPath id="7960bbd456"><path d="M 7.390625 7.242188 L 8.429688 6.203125 L 13.054688 10.828125 L 12.019531 11.867188 Z M 7.390625 7.242188 " clip-rule="nonzero"/></clipPath><clipPath id="204c625df4"><path d="M 5 9 L 13 9 L 13 17 L 5 17 Z M 5 9 " clip-rule="nonzero"/></clipPath><clipPath id="3e3044e405"><path d="M 5.996094 11.03125 L 7.03125 9.992188 L 12.632812 15.59375 L 11.59375 16.632812 Z M 5.996094 11.03125 " clip-rule="nonzero"/></clipPath><clipPath id="6713852878"><path d="M 1.210938 10 L 13 10 L 13 22 L 1.210938 22 Z M 1.210938 10 " clip-rule="nonzero"/></clipPath><clipPath id="96c56eda8b"><path d="M 1.210938 11.117188 L 2.25 10.078125 L 12.59375 20.421875 L 11.554688 21.460938 Z M 1.210938 11.117188 " clip-rule="nonzero"/></clipPath><clipPath id="b762ba0a16"><path d="M 11 5 L 18 5 L 18 12 L 11 12 Z M 11 5 " clip-rule="nonzero"/></clipPath><clipPath id="5e8d5c5467"><path d="M 11.902344 6.628906 L 12.941406 5.589844 L 17.789062 10.4375 L 16.75 11.476562 Z M 11.902344 6.628906 " clip-rule="nonzero"/></clipPath><clipPath id="ede057c313"><path d="M 13 2 L 23 2 L 23 12 L 13 12 Z M 13 2 " clip-rule="nonzero"/></clipPath><clipPath id="146ad442fb"><path d="M 13.257812 3.058594 L 14.296875 2.019531 L 22.648438 10.367188 L 21.609375 11.40625 Z M 13.257812 3.058594 " clip-rule="nonzero"/></clipPath></defs><g clip-path="url(#7b74088cb8)"><g clip-path="url(#704216488f)"><path fill="#ffffff" d="M 6.007812 15.914062 L 17.101562 4.820312 L 28.195312 15.914062 L 17.101562 27.007812 Z M 6.007812 15.914062 " fill-opacity="1" fill-rule="nonzero"/></g></g><g clip-path="url(#1cc69cb63f)"><g clip-path="url(#778cd33201)"><g clip-path="url(#7e4abfb4d2)"><path stroke-linecap="butt" transform="matrix(0.513223, -0.513223, 0.513223, 0.513223, 6.007107, 15.915651)" fill="none" stroke-linejoin="miter" d="M 10.802555 -0.00085962 L 21.610485 10.807071 L 10.80636 21.611196 L -0.00157045 10.803266 Z M 10.802555 -0.00085962 " stroke="#ffffff" stroke-width="4" stroke-opacity="1" stroke-miterlimit="4"/></g></g></g><g clip-path="url(#c88cbfb85f)"><g clip-path="url(#8223b7f2c6)"><path fill="#000000" d="M 15.515625 18.414062 L 19.601562 14.328125 L 23.691406 18.414062 L 19.601562 22.503906 Z M 15.515625 18.414062 " fill-opacity="1" fill-rule="nonzero"/></g></g><g clip-path="url(#b673cb2bed)"><g clip-path="url(#7960bbd456)"><path fill="#ffffff" d="M 7.390625 7.242188 L 8.429688 6.203125 L 13.058594 10.832031 L 12.019531 11.871094 Z M 7.390625 7.242188 " fill-opacity="1" fill-rule="nonzero"/></g></g><g clip-path="url(#204c625df4)"><g clip-path="url(#3e3044e405)"><path fill="#ffffff" d="M 5.996094 11.03125 L 7.03125 9.992188 L 12.632812 15.59375 L 11.597656 16.632812 Z M 5.996094 11.03125 " fill-opacity="1" fill-rule="nonzero"/></g></g><g clip-path="url(#6713852878)"><g clip-path="url(#96c56eda8b)"><path fill="#ffffff" d="M 1.210938 11.117188 L 2.25 10.078125 L 12.59375 20.421875 L 11.554688 21.460938 Z M 1.210938 11.117188 " fill-opacity="1" fill-rule="nonzero"/></g></g><g clip-path="url(#b762ba0a16)"><g clip-path="url(#5e8d5c5467)"><path fill="#ffffff" d="M 11.902344 6.628906 L 12.941406 5.589844 L 17.789062 10.4375 L 16.75 11.476562 Z M 11.902344 6.628906 " fill-opacity="1" fill-rule="nonzero"/></g></g><g clip-path="url(#ede057c313)"><g clip-path="url(#146ad442fb)"><path fill="#ffffff" d="M 13.257812 3.058594 L 14.296875 2.019531 L 22.648438 10.371094 L 21.609375 11.410156 Z M 13.257812 3.058594 " fill-opacity="1" fill-rule="nonzero"/></g></g><g fill="#ffffff" fill-opacity="1"><g transform="translate(23.15478, 20.954108)"><g><path d="M 4.421875 0.140625 C 3.117188 0.140625 2.109375 -0.132812 1.390625 -0.6875 C 0.679688 -1.25 0.273438 -2.070312 0.171875 -3.15625 L 2.453125 -3.484375 C 2.515625 -2.972656 2.71875 -2.578125 3.0625 -2.296875 C 3.414062 -2.023438 3.898438 -1.890625 4.515625 -1.890625 C 5.046875 -1.890625 5.453125 -1.976562 5.734375 -2.15625 C 6.015625 -2.34375 6.15625 -2.609375 6.15625 -2.953125 C 6.15625 -3.253906 6.003906 -3.492188 5.703125 -3.671875 C 5.410156 -3.859375 4.921875 -4.03125 4.234375 -4.1875 C 3.492188 -4.363281 2.867188 -4.578125 2.359375 -4.828125 C 1.859375 -5.085938 1.476562 -5.421875 1.21875 -5.828125 C 0.957031 -6.234375 0.828125 -6.75 0.828125 -7.375 C 0.828125 -8.03125 0.992188 -8.609375 1.328125 -9.109375 C 1.671875 -9.617188 2.144531 -10.015625 2.75 -10.296875 C 3.363281 -10.585938 4.066406 -10.734375 4.859375 -10.734375 C 5.890625 -10.734375 6.734375 -10.46875 7.390625 -9.9375 C 8.046875 -9.414062 8.425781 -8.695312 8.53125 -7.78125 L 6.390625 -7.421875 C 6.316406 -7.828125 6.132812 -8.140625 5.84375 -8.359375 C 5.550781 -8.585938 5.1875 -8.703125 4.75 -8.703125 C 4.3125 -8.703125 3.957031 -8.597656 3.6875 -8.390625 C 3.425781 -8.191406 3.296875 -7.921875 3.296875 -7.578125 C 3.296875 -7.253906 3.421875 -6.992188 3.671875 -6.796875 C 3.929688 -6.609375 4.40625 -6.429688 5.09375 -6.265625 C 5.820312 -6.085938 6.445312 -5.882812 6.96875 -5.65625 C 7.5 -5.4375 7.90625 -5.128906 8.1875 -4.734375 C 8.46875 -4.347656 8.609375 -3.820312 8.609375 -3.15625 C 8.609375 -2.507812 8.4375 -1.9375 8.09375 -1.4375 C 7.75 -0.945312 7.257812 -0.5625 6.625 -0.28125 C 5.988281 0 5.253906 0.140625 4.421875 0.140625 Z M 4.421875 0.140625 "/></g></g></g><g fill="#ffffff" fill-opacity="1"><g transform="translate(32.0861, 20.954108)"><g><path d="M 5.875 0.15625 C 4.757812 0.15625 3.800781 -0.0507812 3 -0.46875 C 2.207031 -0.882812 1.597656 -1.484375 1.171875 -2.265625 C 0.742188 -3.046875 0.53125 -3.988281 0.53125 -5.09375 C 0.53125 -6.195312 0.753906 -7.171875 1.203125 -8.015625 C 1.660156 -8.867188 2.300781 -9.535156 3.125 -10.015625 C 3.957031 -10.492188 4.9375 -10.734375 6.0625 -10.734375 C 7.070312 -10.734375 7.953125 -10.515625 8.703125 -10.078125 C 9.460938 -9.640625 10.050781 -9.03125 10.46875 -8.25 C 10.894531 -7.46875 11.109375 -6.550781 11.109375 -5.5 C 11.109375 -4.363281 10.882812 -3.375 10.4375 -2.53125 C 9.988281 -1.6875 9.367188 -1.03125 8.578125 -0.5625 C 7.785156 -0.09375 6.882812 0.144531 5.875 0.15625 Z M 5.78125 -2.015625 C 6.625 -2.015625 7.304688 -2.316406 7.828125 -2.921875 C 8.359375 -3.535156 8.625 -4.382812 8.625 -5.46875 C 8.625 -6.414062 8.382812 -7.171875 7.90625 -7.734375 C 7.4375 -8.296875 6.800781 -8.578125 6 -8.578125 C 5.40625 -8.578125 4.882812 -8.429688 4.4375 -8.140625 C 3.988281 -7.847656 3.640625 -7.445312 3.390625 -6.9375 C 3.140625 -6.425781 3.015625 -5.828125 3.015625 -5.140625 C 3.015625 -4.148438 3.257812 -3.378906 3.75 -2.828125 C 4.238281 -2.285156 4.914062 -2.015625 5.78125 -2.015625 Z M 5.78125 -2.015625 "/></g></g></g><g fill="#ffffff" fill-opacity="1"><g transform="translate(43.73111, 20.954108)"><g><path d="M 1 0 L 1 -10.578125 L 3.421875 -10.578125 L 3.421875 -2.125 L 8 -2.125 L 7.859375 0 Z M 1 0 "/></g></g></g><g fill="#ffffff" fill-opacity="1"><g transform="translate(51.663434, 20.954108)"><g><path d="M 7.8125 -10.578125 L 10.234375 -10.578125 L 6.46875 0 L 3.03125 0 L -0.125 -10.578125 L 2.46875 -10.578125 L 4.890625 -2.109375 Z M 7.8125 -10.578125 "/></g></g></g><g fill="#ffffff" fill-opacity="1"><g transform="translate(61.429737, 20.954108)"><g><path d="M 5.875 0.15625 C 4.757812 0.15625 3.800781 -0.0507812 3 -0.46875 C 2.207031 -0.882812 1.597656 -1.484375 1.171875 -2.265625 C 0.742188 -3.046875 0.53125 -3.988281 0.53125 -5.09375 C 0.53125 -6.195312 0.753906 -7.171875 1.203125 -8.015625 C 1.660156 -8.867188 2.300781 -9.535156 3.125 -10.015625 C 3.957031 -10.492188 4.9375 -10.734375 6.0625 -10.734375 C 7.070312 -10.734375 7.953125 -10.515625 8.703125 -10.078125 C 9.460938 -9.640625 10.050781 -9.03125 10.46875 -8.25 C 10.894531 -7.46875 11.109375 -6.550781 11.109375 -5.5 C 11.109375 -4.363281 10.882812 -3.375 10.4375 -2.53125 C 9.988281 -1.6875 9.367188 -1.03125 8.578125 -0.5625 C 7.785156 -0.09375 6.882812 0.144531 5.875 0.15625 Z M 5.78125 -2.015625 C 6.625 -2.015625 7.304688 -2.316406 7.828125 -2.921875 C 8.359375 -3.535156 8.625 -4.382812 8.625 -5.46875 C 8.625 -6.414062 8.382812 -7.171875 7.90625 -7.734375 C 7.4375 -8.296875 6.800781 -8.578125 6 -8.578125 C 5.40625 -8.578125 4.882812 -8.429688 4.4375 -8.140625 C 3.988281 -7.847656 3.640625 -7.445312 3.390625 -6.9375 C 3.140625 -6.425781 3.015625 -5.828125 3.015625 -5.140625 C 3.015625 -4.148438 3.257812 -3.378906 3.75 -2.828125 C 4.238281 -2.285156 4.914062 -2.015625 5.78125 -2.015625 Z M 5.78125 -2.015625 "/></g></g></g></svg>